<?xml version="1.0" encoding="iso-8859-1"?>
<!-- Generator: Adobe Illustrator 19.0.0, SVG Export Plug-In . SVG Version: 6.00 Build 0)  -->
<svg version="1.1" id="Capa_1" xmlns="http://www.w3.org/2000/svg" xmlns:xlink="http://www.w3.org/1999/xlink" x="0px" y="0px"
	 viewBox="0 0 512 512" style="enable-background:new 0 0 512 512;" xml:space="preserve">
<g>
	<g>
		<path d="M466,0H286c-24.814,0-46,22.186-46,47v150c0,24.814,21.186,45,46,45h180c24.814,0,46-20.186,46-45V47
			C512,22.186,490.814,0,466,0z M331,167c0,8.291-6.709,15-15,15c-8.291,0-15-6.709-15-15v-30c0-8.291,6.709-15,15-15
			c8.291,0,15,6.709,15,15V167z M391,167c0,8.291-6.709,15-15,15c-8.291,0-15-6.709-15-15v-60c0-8.291,6.709-15,15-15
			c8.291,0,15,6.709,15,15V167z M451,167c0,8.291-6.709,15-15,15c-8.291,0-15-6.709-15-15V77c0-8.291,6.709-15,15-15
			c8.291,0,15,6.709,15,15V167z"/>
	</g>
</g>
<g>
	<g>
		<path d="M120,92c-33.091,0-60,26.909-60,60s26.909,60,60,60s60-26.909,60-60S153.091,92,120,92z"/>
	</g>
</g>
<g>
	<g>
		<path d="M172.619,224.684C157.784,235.456,139.697,242,120,242s-37.784-6.544-52.619-17.316
			c-34.697,17.093-60.227,50.059-66.088,89.678c-0.817,5.515,1.558,10.499,5.427,13.812C20.127,295.286,52.348,272,90,272
			c36.91,0,68.632,22.372,82.5,54.232c10.085-23.168,29.745-40.963,53.862-49.129C214.481,254.468,195.65,236.029,172.619,224.684z"
			/>
	</g>
</g>
<g>
	<g>
		<path d="M90,302c-33.091,0-60,26.909-60,60s26.909,60,60,60s60-26.909,60-60S123.091,302,90,302z"/>
	</g>
</g>
<g>
	<g>
		<path d="M255,302c-33.091,0-60,26.909-60,60s26.909,60,60,60s61-26.909,61-60S288.091,302,255,302z"/>
	</g>
</g>
<g>
	<g>
		<path d="M421,302c-33.091,0-60,26.909-60,60s26.909,60,60,60s61-26.909,61-60S454.091,302,421,302z"/>
	</g>
</g>
<g>
	<g>
		<path d="M135,482c0-18.153,4.299-35.224,11.62-50.618C131.105,444.068,111.559,452,90,452c-26.495,0-50.107-11.721-66.592-30
			C9.016,437.959,0,458.866,0,482v15c0,8.291,6.709,15,15,15h122.763c-1.681-4.715-2.763-9.716-2.763-15V482z"/>
	</g>
</g>
<g>
	<g>
		<path d="M322.592,422c-16.485,18.279-41.097,30-67.592,30s-50.107-11.721-66.592-30C174.016,437.959,165,458.866,165,482v15
			c0,8.291,6.709,15,15,15h151c8.291,0,15-6.709,15-15v-15C346,458.866,336.984,437.959,322.592,422z"/>
	</g>
</g>
<g>
	<g>
		<path d="M488.592,422c-16.485,18.279-41.097,30-67.592,30c-21.559,0-41.105-7.932-56.62-20.618
			C371.701,446.776,376,463.847,376,482v15c0,5.284-1.082,10.285-2.763,15H497c8.291,0,15-6.709,15-15v-15
			C512,458.866,502.984,437.959,488.592,422z"/>
	</g>
</g>
<g>
</g>
<g>
</g>
<g>
</g>
<g>
</g>
<g>
</g>
<g>
</g>
<g>
</g>
<g>
</g>
<g>
</g>
<g>
</g>
<g>
</g>
<g>
</g>
<g>
</g>
<g>
</g>
<g>
</g>
</svg>
