<?xml version="1.0" encoding="iso-8859-1"?>
<!-- Generator: Adobe Illustrator 19.0.0, SVG Export Plug-In . SVG Version: 6.00 Build 0)  -->
<svg version="1.1" id="Capa_1" xmlns="http://www.w3.org/2000/svg" xmlns:xlink="http://www.w3.org/1999/xlink" x="0px" y="0px"
	 viewBox="0 0 464 464" style="enable-background:new 0 0 464 464;" xml:space="preserve">
<g>
	<g>
		<path d="M440,1.5H24c-13.255,0-24,10.745-24,24s10.745,24,24,24v328c0,4.418,3.582,8,8,8h95.352l-53.6,67l12.496,10l61.6-77H224
			v17.472c-12.497,4.418-19.046,18.131-14.627,30.627c4.418,12.497,18.131,19.046,30.627,14.627s19.046-18.131,14.627-30.627
			c-2.416-6.835-7.793-12.211-14.627-14.627V385.5h76.152l61.6,77l12.496-10l-53.6-67H432c4.418,0,8-3.582,8-8v-328
			c13.255,0,24-10.745,24-24S453.255,1.5,440,1.5z M232,433.5c-4.418,0-8-3.582-8-8s3.582-8,8-8s8,3.582,8,8
			S236.418,433.5,232,433.5z M424,369.5H40v-320h384V369.5z M440,33.5H24c-4.418,0-8-3.582-8-8s3.582-8,8-8h416c4.418,0,8,3.582,8,8
			S444.418,33.5,440,33.5z"/>
	</g>
</g>
<g>
	<g>
		<rect x="72" y="257.5" width="128" height="16"/>
	</g>
</g>
<g>
	<g>
		<rect x="72" y="289.5" width="128" height="16"/>
	</g>
</g>
<g>
	<g>
		<rect x="72" y="321.5" width="96" height="16"/>
	</g>
</g>
<g>
	<g>
		<rect x="136" y="225.5" width="64" height="16"/>
	</g>
</g>
<g>
	<g>
		<rect x="264" y="113.5" width="128" height="16"/>
	</g>
</g>
<g>
	<g>
		<rect x="264" y="145.5" width="128" height="16"/>
	</g>
</g>
<g>
	<g>
		<rect x="264" y="177.5" width="96" height="16"/>
	</g>
</g>
<g>
	<g>
		<rect x="328" y="81.5" width="64" height="16"/>
	</g>
</g>
<g>
	<g>
		<path d="M136,73.5c-35.346,0-64,28.654-64,64c0.04,35.33,28.67,63.96,64,64c35.346,0,64-28.654,64-64
			C200,102.154,171.346,73.5,136,73.5z M144.24,90.268c12.218,2.138,23.131,8.929,30.448,18.944L144,124.54L144.24,90.268z
			 M108.337,98.354c5.946-4.193,12.769-6.974,19.951-8.135L128,134.3l-31.2,30.776C81.561,143.465,86.726,113.593,108.337,98.354z
			 M149.994,183.411c-4.536,1.384-9.251,2.088-13.994,2.089c-10.059,0.001-19.86-3.18-28-9.088l32.864-32.4l41.032-20.52
			C189.632,148.848,175.349,175.674,149.994,183.411z"/>
	</g>
</g>
<g>
	<g>
		<rect x="248" y="297.5" width="16" height="40"/>
	</g>
</g>
<g>
	<g>
		<rect x="376" y="281.5" width="16" height="56"/>
	</g>
</g>
<g>
	<g>
		<rect x="280" y="273.5" width="16" height="64"/>
	</g>
</g>
<g>
	<g>
		<rect x="312" y="241.5" width="16" height="96"/>
	</g>
</g>
<g>
	<g>
		<rect x="344" y="265.5" width="16" height="72"/>
	</g>
</g>
<g>
	<g>
		<rect x="104" y="225.5" width="16" height="16"/>
	</g>
</g>
<g>
	<g>
		<rect x="296" y="81.5" width="16" height="16"/>
	</g>
</g>
<g>
</g>
<g>
</g>
<g>
</g>
<g>
</g>
<g>
</g>
<g>
</g>
<g>
</g>
<g>
</g>
<g>
</g>
<g>
</g>
<g>
</g>
<g>
</g>
<g>
</g>
<g>
</g>
<g>
</g>
</svg>
