<?xml version="1.0" encoding="iso-8859-1"?>
<!-- Generator: Adobe Illustrator 19.0.0, SVG Export Plug-In . SVG Version: 6.00 Build 0)  -->
<svg version="1.1" id="Capa_1" xmlns="http://www.w3.org/2000/svg" xmlns:xlink="http://www.w3.org/1999/xlink" x="0px" y="0px"
	 viewBox="0 0 512 512" style="enable-background:new 0 0 512 512;" xml:space="preserve">
<g>
	<g>
		<path d="M467,0H256c-8.284,0-15,6.716-15,15v62.899C236.142,76.647,231.104,76,226,76c-33.084,0-60,26.916-60,60s26.916,60,60,60
			c5.104,0,10.142-0.647,15-1.899V241h-71.485c-5.918,0-11.282,3.479-13.696,8.883c-2.413,5.403-1.424,11.72,2.525,16.127
			C163.281,271.52,166,278.62,166,286c0,16.542-13.458,30-30,30s-30-13.458-30-30c0-7.38,2.719-14.48,7.656-19.99
			c3.949-4.407,4.938-10.724,2.525-16.127c-2.414-5.403-7.778-8.883-13.696-8.883H15c-3.979,0-7.794,1.58-10.606,4.393
			C1.58,248.206,0,252.021,0,256v211c0,24.813,20.187,45,45,45h422c24.813,0,45-20.187,45-45V45C512,20.187,491.813,0,467,0z
			 M241,409.445L241,409.445c0,0.011,0,0.021,0,0.031c0,0.002,0,0.005,0,0.008c0,0.01,0,0.021,0,0.031V482H45
			c-8.271,0-15-6.729-15-15V270.9h47.904C76.648,275.76,76,280.896,76,286c0,33.084,26.916,60,60,60s60-26.916,60-60
			c0-5.104-0.648-10.14-1.904-15H241c0,6.666,0,64.819,0,71.486v0.001c0,13.043,15.458,19.735,25.01,11.17
			C271.521,348.719,278.619,346,286,346c16.542,0,30,13.458,30,30s-13.458,30-30,30c-7.365,0-14.45-2.708-19.955-7.626
			C256.491,389.754,241.061,396.453,241,409.445z M482,467c0,8.271-6.729,15-15,15H271v-47.905c4.86,1.256,9.896,1.905,15,1.905
			c33.084,0,60-26.916,60-60s-26.916-60-60-60c-5.104,0-10.14,0.648-15,1.905V271h71.485c5.918,0,11.282-3.479,13.696-8.883
			c2.413-5.403,1.424-11.72-2.525-16.127C348.719,240.48,346,233.38,346,226c0-16.542,13.458-30,30-30s30,13.458,30,30
			c0,7.38-2.719,14.48-7.656,19.99c-3.949,4.407-4.938,10.724-2.525,16.127c2.414,5.403,7.778,8.883,13.696,8.883H482V467z M482,241
			h-47.904c1.256-4.86,1.904-9.896,1.904-15c0-33.084-26.916-60-60-60s-60,26.916-60,60c0,5.104,0.648,10.14,1.904,15H271v-71.458
			c0-12.7-15.173-19.965-25.004-11.177C240.495,163.288,233.394,166,226,166c-16.542,0-30-13.458-30-30s13.458-30,30-30
			c7.394,0,14.495,2.712,19.996,7.635c9.522,8.514,25.004,1.933,25.004-11.177V30h196c8.271,0,15,6.729,15,15V241z"/>
	</g>
</g>
<g>
</g>
<g>
</g>
<g>
</g>
<g>
</g>
<g>
</g>
<g>
</g>
<g>
</g>
<g>
</g>
<g>
</g>
<g>
</g>
<g>
</g>
<g>
</g>
<g>
</g>
<g>
</g>
<g>
</g>
</svg>
