<?xml version="1.0" encoding="iso-8859-1"?>
<!-- Generator: Adobe Illustrator 19.0.0, SVG Export Plug-In . SVG Version: 6.00 Build 0)  -->
<svg version="1.1" id="Capa_1" xmlns="http://www.w3.org/2000/svg" xmlns:xlink="http://www.w3.org/1999/xlink" x="0px" y="0px"
	 viewBox="0 0 512 512" style="enable-background:new 0 0 512 512;" xml:space="preserve">
<g>
	<g>
		<path d="M482,0H30C13.431,0,0,14.431,0,31c0,16.569,13.431,30,30,30h452c16.569,0,30-13.431,30-30C512,14.431,498.569,0,482,0z"/>
	</g>
</g>
<g>
	<g>
		<path d="M166,301c-8.276,0-15,6.724-15,15s6.724,15,15,15s15-6.724,15-15S174.276,301,166,301z"/>
	</g>
</g>
<g>
	<g>
		<path d="M30,91v255c0,24.814,20.186,45,45,45h166v33.763c-17.422,6.213-30,22.707-30,42.237c0,24.814,20.186,45,45,45
			c24.814,0,45-20.186,45-45c0-19.53-12.578-36.024-30-42.237V391h165c24.814,0,46-20.186,46-45V91H30z M125.395,176.605
			c-5.859-5.859-5.859-15.352,0-21.211s15.352-5.859,21.211,0L166,174.789l19.395-19.395c5.859-5.859,15.352-5.859,21.211,0
			s5.859,15.352,0,21.211L187.211,196l19.395,19.395c5.859,5.859,5.859,15.352,0,21.211c-5.859,5.859-15.352,5.859-21.211,0
			L166,217.211l-19.395,19.395c-5.859,5.859-15.352,5.859-21.211,0c-5.859-5.859-5.859-15.352,0-21.211L144.789,196L125.395,176.605
			z M386.605,335.395c5.859,5.859,5.859,15.352,0,21.211s-15.352,5.859-21.211,0L346,337.211l-19.395,19.395
			c-5.859,5.859-15.352,5.859-21.211,0s-5.859-15.352,0-21.211L324.789,316l-19.395-19.395c-5.859-5.859-5.859-15.352,0-21.211
			s15.352-5.859,21.211,0L346,294.789l19.395-19.395c5.859-5.859,15.352-5.859,21.211,0s5.859,15.352,0,21.211L367.211,316
			L386.605,335.395z M416.605,176.606c-5.859,5.859-15.352,5.859-21.211,0L391,172.211V226c0,8.291-6.709,15-15,15H271v75
			c0,8.291-6.709,15-15,15h-47.763c-6.213,17.422-22.707,30-42.237,30c-24.814,0-45-20.186-45-45c0-24.814,20.186-45,45-45
			c19.53,0,36.024,12.578,42.237,30H241v-75c0-8.291,6.709-15,15-15h105v-38.789l-4.395,4.395c-5.859,5.859-15.352,5.859-21.211,0
			c-5.859-5.859-5.859-15.352,0-21.211l30-30c5.303-5.303,15.106-6.105,21.211,0l30,30
			C422.464,161.254,422.464,170.747,416.605,176.606z"/>
	</g>
</g>
<g>
</g>
<g>
</g>
<g>
</g>
<g>
</g>
<g>
</g>
<g>
</g>
<g>
</g>
<g>
</g>
<g>
</g>
<g>
</g>
<g>
</g>
<g>
</g>
<g>
</g>
<g>
</g>
<g>
</g>
</svg>
