<?xml version="1.0" encoding="iso-8859-1"?>
<!-- Generator: Adobe Illustrator 19.0.0, SVG Export Plug-In . SVG Version: 6.00 Build 0)  -->
<svg version="1.1" id="Capa_1" xmlns="http://www.w3.org/2000/svg" xmlns:xlink="http://www.w3.org/1999/xlink" x="0px" y="0px"
	 viewBox="0 0 512 512" style="enable-background:new 0 0 512 512;" xml:space="preserve">
<g>
	<g>
		<path d="M338.858,90.007c28.79,23.902,47.156,59.946,47.156,100.202c0,40.255-18.366,76.3-47.156,100.202h83.622V90.007H338.858z"
			/>
	</g>
</g>
<g>
	<g>
		<polygon points="354.453,481.996 354.453,427.929 157.844,427.929 157.844,481.996 103.46,481.996 103.46,511.996 408.54,511.996 
			408.54,481.996 		"/>
	</g>
</g>
<g>
	<g>
		<path d="M199.433,205.209h-42.7c5.586,37.054,31.538,67.518,66.052,79.602C209.572,260.274,201.559,233.088,199.433,205.209z"/>
	</g>
</g>
<g>
	<g>
		<path d="M287.39,95.11c13.373,24.667,21.479,52.031,23.62,80.099h43.881C349.227,137.638,322.626,106.84,287.39,95.11z"/>
	</g>
</g>
<g>
	<g>
		<path d="M311.01,205.209c-2.141,28.068-10.247,55.432-23.62,80.099c35.235-11.73,61.837-42.528,67.501-80.099H311.01z"/>
	</g>
</g>
<g>
	<g>
		<path d="M156.733,175.209h42.7c2.126-27.88,10.139-55.065,23.352-79.602C188.271,107.691,162.319,138.156,156.733,175.209z"/>
	</g>
</g>
<g>
	<g>
		<path d="M125.61,190.209c0-40.255,18.366-76.3,47.156-100.202H90.004V290.41h82.762
			C143.976,266.509,125.61,230.464,125.61,190.209z"/>
	</g>
</g>
<g>
	<g>
		<path d="M255.221,99.519c-14.428,22.774-23.278,48.818-25.692,75.69h51.384C278.5,148.337,269.65,122.293,255.221,99.519z"/>
	</g>
</g>
<g>
	<g>
		<path d="M0,0.004v397.925h512V0.004H0z M254.938,373.979c-8.409,0-14.636-6.873-15-15c-0.363-8.101,7.154-15,15-15
			c8.409,0,14.636,6.873,15,15C270.301,367.079,262.784,373.979,254.938,373.979z M452.48,320.41h-0.001H60.004V60.007H452.48
			V320.41z"/>
	</g>
</g>
<g>
	<g>
		<path d="M229.53,205.209c2.414,26.872,11.264,52.916,25.692,75.69c14.428-22.774,23.278-48.818,25.692-75.69H229.53z"/>
	</g>
</g>
<g>
</g>
<g>
</g>
<g>
</g>
<g>
</g>
<g>
</g>
<g>
</g>
<g>
</g>
<g>
</g>
<g>
</g>
<g>
</g>
<g>
</g>
<g>
</g>
<g>
</g>
<g>
</g>
<g>
</g>
</svg>
